<svg xmlns="http://www.w3.org/2000/svg" xmlns:xlink="http://www.w3.org/1999/xlink" contentStyleType="text/css" data-diagram-type="CLASS" height="127px" preserveAspectRatio="none" style="width:305px;height:127px;background:#FFFFFF;" version="1.1" viewBox="0 0 305 127" width="305px" zoomAndPan="magnify"><defs/><g><!--class t--><g class="entity" data-entity="t" data-source-line="1" data-uid="ent0002" id="entity_t"><rect fill="#F1F1F1" height="113.1875" rx="2.5" ry="2.5" style="stroke:#181818;stroke-width:0.5;" width="129.7559" x="7" y="7"/><ellipse cx="51.3618" cy="23" fill="#ADD1B2" rx="11" ry="11" style="stroke:#181818;stroke-width:1;"/><path d="M55.4712,29 L47.7524,29 L47.7524,16.6094 L55.4712,16.6094 L55.4712,18.7656 L50.2056,18.7656 L50.2056,21.4375 L54.9712,21.4375 L54.9712,23.5938 L50.2056,23.5938 L50.2056,26.8438 L55.4712,26.8438 L55.4712,29 Z " fill="#000000"/><text fill="#000000" font-family="sans-serif" font-size="14" lengthAdjust="spacing" textLength="32.5322" x="71.8618" y="27.8467">Task</text><line style="stroke:#181818;stroke-width:0.5;" x1="8" x2="135.7559" y1="39" y2="39"/><text fill="#000000" font-family="sans-serif" font-size="14" lengthAdjust="spacing" textLength="61.8584" x="13" y="55.9951">id: bigint</text><line style="stroke:#181818;stroke-width:1;" x1="8" x2="135.7559" y1="63.2969" y2="63.2969"/><text fill="#000000" font-family="sans-serif" font-size="14" lengthAdjust="spacing" textLength="76.7471" x="13" y="80.292">name: text</text><text fill="#000000" font-family="sans-serif" font-size="14" lengthAdjust="spacing" textLength="114.8848" x="13" y="96.5889">description: text</text><text fill="#000000" font-family="sans-serif" font-size="14" lengthAdjust="spacing" textLength="117.7559" x="13" y="112.8857">project_id: bigint</text></g><!--class p--><g class="entity" data-entity="p" data-source-line="9" data-uid="ent0003" id="entity_p"><rect fill="#F1F1F1" height="96.8906" rx="2.5" ry="2.5" style="stroke:#181818;stroke-width:0.5;" width="126.8848" x="171.44" y="15.15"/><ellipse cx="207.3342" cy="31.15" fill="#ADD1B2" rx="11" ry="11" style="stroke:#181818;stroke-width:1;"/><path d="M211.4436,37.15 L203.7249,37.15 L203.7249,24.7594 L211.4436,24.7594 L211.4436,26.9156 L206.178,26.9156 L206.178,29.5875 L210.9436,29.5875 L210.9436,31.7437 L206.178,31.7437 L206.178,34.9937 L211.4436,34.9937 L211.4436,37.15 Z " fill="#000000"/><text fill="#000000" font-family="sans-serif" font-size="14" lengthAdjust="spacing" textLength="48.4531" x="225.9774" y="35.9967">Project</text><line style="stroke:#181818;stroke-width:0.5;" x1="172.44" x2="297.3248" y1="47.15" y2="47.15"/><text fill="#000000" font-family="sans-serif" font-size="14" lengthAdjust="spacing" textLength="61.8584" x="177.44" y="64.1451">id: bigint</text><line style="stroke:#181818;stroke-width:1;" x1="172.44" x2="297.3248" y1="71.4469" y2="71.4469"/><text fill="#000000" font-family="sans-serif" font-size="14" lengthAdjust="spacing" textLength="76.7471" x="177.44" y="88.442">name: text</text><text fill="#000000" font-family="sans-serif" font-size="14" lengthAdjust="spacing" textLength="114.8848" x="177.44" y="104.7389">description: text</text></g><!--SRC=[IyqhoIofL50AIIpELb98B5OeKQZcKb38JB5IICfCpymh0N9qTNM1P5vYRggLGabg1KWe9RKukIYpe2GpFmykLb2KdvMQN1AFfBUMYoiLQa40H1PiHm6PTW2DKozGgAtHrQsfKIW10000]--></g></svg>