<svg xmlns="http://www.w3.org/2000/svg" xmlns:xlink="http://www.w3.org/1999/xlink" contentStyleType="text/css" data-diagram-type="CLASS" height="284px" preserveAspectRatio="none" style="width:143px;height:284px;background:#FFFFFF;" version="1.1" viewBox="0 0 143 284" width="143px" zoomAndPan="magnify"><defs/><g><!--class t--><g class="entity" data-entity="t" data-source-line="1" data-uid="ent0002" id="entity_t"><rect fill="#F1F1F1" height="113.1875" rx="2.5" ry="2.5" style="stroke:#181818;stroke-width:0.5;" width="129.7559" x="7" y="163.89"/><ellipse cx="51.3618" cy="179.89" fill="#ADD1B2" rx="11" ry="11" style="stroke:#181818;stroke-width:1;"/><path d="M55.4712,185.89 L47.7524,185.89 L47.7524,173.4994 L55.4712,173.4994 L55.4712,175.6556 L50.2056,175.6556 L50.2056,178.3275 L54.9712,178.3275 L54.9712,180.4838 L50.2056,180.4838 L50.2056,183.7338 L55.4712,183.7338 L55.4712,185.89 Z " fill="#000000"/><text fill="#000000" font-family="sans-serif" font-size="14" lengthAdjust="spacing" textLength="32.5322" x="71.8618" y="184.7367">Task</text><line style="stroke:#181818;stroke-width:0.5;" x1="8" x2="135.7559" y1="195.89" y2="195.89"/><text fill="#000000" font-family="sans-serif" font-size="14" lengthAdjust="spacing" textLength="61.8584" x="13" y="212.8851">id: bigint</text><line style="stroke:#181818;stroke-width:1;" x1="8" x2="135.7559" y1="220.1869" y2="220.1869"/><text fill="#000000" font-family="sans-serif" font-size="14" lengthAdjust="spacing" textLength="76.7471" x="13" y="237.182">name: text</text><text fill="#000000" font-family="sans-serif" font-size="14" lengthAdjust="spacing" textLength="114.8848" x="13" y="253.4789">description: text</text><text fill="#000000" font-family="sans-serif" font-size="14" lengthAdjust="spacing" textLength="117.7559" x="13" y="269.7757">project_id: bigint</text></g><!--class p--><g class="entity" data-entity="p" data-source-line="9" data-uid="ent0003" id="entity_p"><rect fill="#F1F1F1" height="96.8906" rx="2.5" ry="2.5" style="stroke:#181818;stroke-width:0.5;" width="126.8848" x="8.44" y="7"/><ellipse cx="44.3342" cy="23" fill="#ADD1B2" rx="11" ry="11" style="stroke:#181818;stroke-width:1;"/><path d="M48.4436,29 L40.7249,29 L40.7249,16.6094 L48.4436,16.6094 L48.4436,18.7656 L43.178,18.7656 L43.178,21.4375 L47.9436,21.4375 L47.9436,23.5938 L43.178,23.5938 L43.178,26.8438 L48.4436,26.8438 L48.4436,29 Z " fill="#000000"/><text fill="#000000" font-family="sans-serif" font-size="14" lengthAdjust="spacing" textLength="48.4531" x="62.9774" y="27.8467">Project</text><line style="stroke:#181818;stroke-width:0.5;" x1="9.44" x2="134.3248" y1="39" y2="39"/><text fill="#000000" font-family="sans-serif" font-size="14" lengthAdjust="spacing" textLength="61.8584" x="14.44" y="55.9951">id: bigint</text><line style="stroke:#181818;stroke-width:1;" x1="9.44" x2="134.3248" y1="63.2969" y2="63.2969"/><text fill="#000000" font-family="sans-serif" font-size="14" lengthAdjust="spacing" textLength="76.7471" x="14.44" y="80.292">name: text</text><text fill="#000000" font-family="sans-serif" font-size="14" lengthAdjust="spacing" textLength="114.8848" x="14.44" y="96.5889">description: text</text></g><!--link p to t--><g class="link" data-entity-1="p" data-entity-2="t" data-source-line="16" data-uid="lnk4" id="link_p_t"><path codeLine="16" d="M71.88,119.04 C71.88,137.65 71.88,126.13 71.88,145.48" fill="none" id="p-t" style="stroke:#181818;stroke-width:1;stroke-dasharray:7,7;"/><line style="stroke:#181818;stroke-width:1;" x1="71.88" x2="71.88" y1="115.04" y2="104.04"/><ellipse cx="71.88" cy="115.04" fill="none" rx="4" ry="4" style="stroke:#181818;stroke-width:1;"/><line style="stroke:#181818;stroke-width:1;" x1="67.88" x2="75.88" y1="108.04" y2="108.04"/><line style="stroke:#181818;stroke-width:1;" x1="71.88" x2="77.88" y1="155.48" y2="163.48"/><line style="stroke:#181818;stroke-width:1;" x1="71.88" x2="65.88" y1="155.48" y2="163.48"/><line style="stroke:#181818;stroke-width:1;" x1="71.88" x2="71.88" y1="155.48" y2="163.48"/><ellipse cx="71.88" cy="149.48" fill="none" rx="4" ry="4" style="stroke:#181818;stroke-width:1;"/></g><!--SRC=[IyqhoIofL50AIIpELb98B5OeKQZcKb38JB5IICfCpymh0N9qTNM1P5vYRggLGabg1KWe9RKukIYpe2GpFmykLb2KdvMQN1AFfBUMYoiLQa40H1PiHm6PTW2DAr2eoTVJowzMA040]--></g></svg>