<?xml version="1.0" encoding="us-ascii" standalone="no"?><svg xmlns="http://www.w3.org/2000/svg" xmlns:xlink="http://www.w3.org/1999/xlink" contentStyleType="text/css" height="229px" preserveAspectRatio="none" style="width:772px;height:229px;background:#FFFFFF;" version="1.1" viewBox="0 0 772 229" width="772px" zoomAndPan="magnify"><defs/><g><!--class app_program--><g id="elem_app_program"><rect codeLine="4" fill="#F1F1F1" height="194.6719" id="app_program" rx="2.5" ry="2.5" style="stroke:#181818;stroke-width:0.5;" width="229" x="536" y="20"/><ellipse cx="598.25" cy="36" fill="#ADD1B2" rx="11" ry="11" style="stroke:#181818;stroke-width:1.0;"/><path d="M602.3594,42 L594.6406,42 L594.6406,29.6094 L602.3594,29.6094 L602.3594,31.7656 L597.0938,31.7656 L597.0938,34.4375 L601.8594,34.4375 L601.8594,36.5938 L597.0938,36.5938 L597.0938,39.8438 L602.3594,39.8438 L602.3594,42 Z " fill="#000000"/><text fill="#000000" font-family="sans-serif" font-size="14" lengthAdjust="spacing" textLength="96" x="618.75" y="40.8467">app_program</text><line style="stroke:#181818;stroke-width:0.5;" x1="537" x2="764" y1="52" y2="52"/><ellipse cx="547" cy="65.6484" fill="#000000" rx="3" ry="3" style="stroke:#000000;stroke-width:1.0;"/><text fill="#000000" font-family="sans-serif" font-size="14" lengthAdjust="spacing" textLength="81" x="556" y="68.9951">"id" : "uuid"</text><line style="stroke:#181818;stroke-width:1.0;" x1="537" x2="764" y1="76.2969" y2="76.2969"/><text fill="#000000" font-family="sans-serif" font-size="14" lengthAdjust="spacing" textLength="192" x="542" y="93.292">"sysname" : "varchar(256)"</text><text fill="#000000" font-family="sans-serif" font-size="14" lengthAdjust="spacing" textLength="179" x="542" y="109.5889">"name" : "varchar(2000)"</text><text fill="#000000" font-family="sans-serif" font-size="14" lengthAdjust="spacing" textLength="217" x="542" y="125.8857">"description" : "varchar(4000)"</text><text fill="#000000" font-family="sans-serif" font-size="14" lengthAdjust="spacing" textLength="106" x="542" y="142.1826">"status" : "text"</text><text fill="#000000" font-family="sans-serif" font-size="14" lengthAdjust="spacing" textLength="140" x="542" y="158.4795">"version" : "integer"</text><text fill="#000000" font-family="sans-serif" font-size="14" lengthAdjust="spacing" textLength="167" x="542" y="174.7764">"is_deleted" : "boolean"</text><text fill="#000000" font-family="sans-serif" font-size="14" lengthAdjust="spacing" textLength="180" x="542" y="191.0732">"created" : "timestamptz"</text><text fill="#000000" font-family="sans-serif" font-size="14" lengthAdjust="spacing" textLength="184" x="542" y="207.3701">"updated" : "timestamptz"</text></g><!--class app_project--><g id="elem_app_project"><rect codeLine="17" fill="#F1F1F1" height="210.9688" id="app_project" rx="2.5" ry="2.5" style="stroke:#181818;stroke-width:0.5;" width="229" x="271" y="12"/><ellipse cx="339.25" cy="28" fill="#ADD1B2" rx="11" ry="11" style="stroke:#181818;stroke-width:1.0;"/><path d="M343.3594,34 L335.6406,34 L335.6406,21.6094 L343.3594,21.6094 L343.3594,23.7656 L338.0938,23.7656 L338.0938,26.4375 L342.8594,26.4375 L342.8594,28.5938 L338.0938,28.5938 L338.0938,31.8438 L343.3594,31.8438 L343.3594,34 Z " fill="#000000"/><text fill="#000000" font-family="sans-serif" font-size="14" lengthAdjust="spacing" textLength="84" x="359.75" y="32.8467">app_project</text><line style="stroke:#181818;stroke-width:0.5;" x1="272" x2="499" y1="44" y2="44"/><ellipse cx="282" cy="57.6484" fill="#000000" rx="3" ry="3" style="stroke:#000000;stroke-width:1.0;"/><text fill="#000000" font-family="sans-serif" font-size="14" lengthAdjust="spacing" textLength="81" x="291" y="60.9951">"id" : "uuid"</text><line style="stroke:#181818;stroke-width:1.0;" x1="272" x2="499" y1="68.2969" y2="68.2969"/><text fill="#000000" font-family="sans-serif" font-size="14" lengthAdjust="spacing" textLength="150" x="277" y="85.292">"program_id" : "uuid"</text><text fill="#000000" font-family="sans-serif" font-size="14" lengthAdjust="spacing" textLength="192" x="277" y="101.5889">"sysname" : "varchar(256)"</text><text fill="#000000" font-family="sans-serif" font-size="14" lengthAdjust="spacing" textLength="179" x="277" y="117.8857">"name" : "varchar(2000)"</text><text fill="#000000" font-family="sans-serif" font-size="14" lengthAdjust="spacing" textLength="217" x="277" y="134.1826">"description" : "varchar(4000)"</text><text fill="#000000" font-family="sans-serif" font-size="14" lengthAdjust="spacing" textLength="106" x="277" y="150.4795">"status" : "text"</text><text fill="#000000" font-family="sans-serif" font-size="14" lengthAdjust="spacing" textLength="140" x="277" y="166.7764">"version" : "integer"</text><text fill="#000000" font-family="sans-serif" font-size="14" lengthAdjust="spacing" textLength="167" x="277" y="183.0732">"is_deleted" : "boolean"</text><text fill="#000000" font-family="sans-serif" font-size="14" lengthAdjust="spacing" textLength="180" x="277" y="199.3701">"created" : "timestamptz"</text><text fill="#000000" font-family="sans-serif" font-size="14" lengthAdjust="spacing" textLength="184" x="277" y="215.667">"updated" : "timestamptz"</text></g><!--class app_task--><g id="elem_app_task"><rect codeLine="31" fill="#F1F1F1" height="210.9688" id="app_task" rx="2.5" ry="2.5" style="stroke:#181818;stroke-width:0.5;" width="229" x="6" y="12"/><ellipse cx="84.75" cy="28" fill="#ADD1B2" rx="11" ry="11" style="stroke:#181818;stroke-width:1.0;"/><path d="M88.8594,34 L81.1406,34 L81.1406,21.6094 L88.8594,21.6094 L88.8594,23.7656 L83.5938,23.7656 L83.5938,26.4375 L88.3594,26.4375 L88.3594,28.5938 L83.5938,28.5938 L83.5938,31.8438 L88.8594,31.8438 L88.8594,34 Z " fill="#000000"/><text fill="#000000" font-family="sans-serif" font-size="14" lengthAdjust="spacing" textLength="63" x="105.25" y="32.8467">app_task</text><line style="stroke:#181818;stroke-width:0.5;" x1="7" x2="234" y1="44" y2="44"/><ellipse cx="17" cy="57.6484" fill="#000000" rx="3" ry="3" style="stroke:#000000;stroke-width:1.0;"/><text fill="#000000" font-family="sans-serif" font-size="14" lengthAdjust="spacing" textLength="81" x="26" y="60.9951">"id" : "uuid"</text><line style="stroke:#181818;stroke-width:1.0;" x1="7" x2="234" y1="68.2969" y2="68.2969"/><text fill="#000000" font-family="sans-serif" font-size="14" lengthAdjust="spacing" textLength="138" x="12" y="85.292">"project_id" : "uuid"</text><text fill="#000000" font-family="sans-serif" font-size="14" lengthAdjust="spacing" textLength="192" x="12" y="101.5889">"sysname" : "varchar(256)"</text><text fill="#000000" font-family="sans-serif" font-size="14" lengthAdjust="spacing" textLength="179" x="12" y="117.8857">"name" : "varchar(2000)"</text><text fill="#000000" font-family="sans-serif" font-size="14" lengthAdjust="spacing" textLength="217" x="12" y="134.1826">"description" : "varchar(4000)"</text><text fill="#000000" font-family="sans-serif" font-size="14" lengthAdjust="spacing" textLength="106" x="12" y="150.4795">"status" : "text"</text><text fill="#000000" font-family="sans-serif" font-size="14" lengthAdjust="spacing" textLength="140" x="12" y="166.7764">"version" : "integer"</text><text fill="#000000" font-family="sans-serif" font-size="14" lengthAdjust="spacing" textLength="167" x="12" y="183.0732">"is_deleted" : "boolean"</text><text fill="#000000" font-family="sans-serif" font-size="14" lengthAdjust="spacing" textLength="180" x="12" y="199.3701">"created" : "timestamptz"</text><text fill="#000000" font-family="sans-serif" font-size="14" lengthAdjust="spacing" textLength="184" x="12" y="215.667">"updated" : "timestamptz"</text></g><line style="stroke:#181818;stroke-width:1.0;" x1="508.326" x2="500.326" y1="117.5" y2="125.5"/><line style="stroke:#181818;stroke-width:1.0;" x1="508.326" x2="500.326" y1="117.5" y2="109.5"/><line style="stroke:#181818;stroke-width:1.0;" x1="508.326" x2="500.326" y1="117.5" y2="117.5"/><line style="stroke:#181818;stroke-width:1.0;" x1="531.9173" x2="531.9173" y1="113.5" y2="121.5"/><line style="stroke:#181818;stroke-width:1.0;" x1="528.9173" x2="528.9173" y1="113.5" y2="121.5"/><line style="stroke:#181818;stroke-width:1.0;" x1="527.9173" x2="535.9173" y1="117.5" y2="117.5"/><path d="M508.326,117.5 C520.1262,117.5 516.1198,117.5 527.9173,117.5 " fill="none" style="stroke:#181818;stroke-width:1.0;"/><line style="stroke:#181818;stroke-width:1.0;" x1="243.326" x2="235.326" y1="117.5" y2="125.5"/><line style="stroke:#181818;stroke-width:1.0;" x1="243.326" x2="235.326" y1="117.5" y2="109.5"/><line style="stroke:#181818;stroke-width:1.0;" x1="243.326" x2="235.326" y1="117.5" y2="117.5"/><line style="stroke:#181818;stroke-width:1.0;" x1="266.9173" x2="266.9173" y1="113.5" y2="121.5"/><line style="stroke:#181818;stroke-width:1.0;" x1="263.9173" x2="263.9173" y1="113.5" y2="121.5"/><line style="stroke:#181818;stroke-width:1.0;" x1="262.9173" x2="270.9173" y1="117.5" y2="117.5"/><path d="M243.326,117.5 C255.1262,117.5 251.1198,117.5 262.9173,117.5 " fill="none" style="stroke:#181818;stroke-width:1.0;"/><!--SRC=[vPFFIiGm48VlUOen5tMXK4Gz-39bRCOsQ_E7oRJOTVVTRRifR5NG- -OGmdpp2yD7qj6RW0HWsxG2nZBLOeC7TNiJ6Hk7q336Th27oWI1_Rof5NKuXbuWEHBq28gyM1b1OunLv30bdOPF1TFQQMiql83k- -cWYg9OoZgDoQEZ1Gt8TOjyz_3qVA_F-2ShotA5XbBDDixpRdeUBtgIeFHfmK8Vagi3SLfJrWirn9dOL1dgIEWyxMi87Q7Fi6R2bOXrD5tkeXmoxQFvdPxKTpFxoV9VPhB0QaElrPbWUl-7iDdhzGhRlgvJKHoFsx-eBbnkyH9HNm00]--></g></svg>